<svg width="80" height="103" viewBox="0 0 80 103" fill="none" xmlns="http://www.w3.org/2000/svg">
<path d="M40.0044 0.183753C38.0498 0.375513 36.1356 0.855839 34.2819 1.56636C32.4299 2.27716 30.6358 3.21541 28.9034 4.33551L28.7978 4.40433L28.9024 4.33855C23.7066 7.70551 18.9486 12.7335 14.7521 18.9348L14.7516 18.9364C10.5646 25.1476 6.95957 32.5698 4.32054 40.8043C2.30957 47.079 1.04281 53.254 0.479906 59.0973C-0.0828527 64.941 0.0579622 70.4532 0.898899 75.4137L0.899548 75.4174C1.7488 80.3751 3.29096 84.8259 5.73349 88.5018L5.68597 88.4342L5.73297 88.5034C6.95776 90.3397 8.41941 91.9861 10.1486 93.3417C11.879 94.6993 13.8762 95.7519 16.0777 96.3823L33.37 101.346C35.5724 101.98 37.8524 102.156 40.0881 101.937C42.0427 101.745 43.9552 101.264 45.8089 100.553C47.6631 99.8415 49.455 98.9044 51.1873 97.7847L51.19 97.782C56.3824 94.414 61.1464 89.3897 65.3396 83.1872L65.3597 83.1532C69.538 76.9475 73.1372 69.5378 75.7738 61.3166L75.7744 61.315C77.7831 55.0413 79.0498 48.8666 79.6128 43.023C80.1755 37.1794 80.033 31.6667 79.1936 26.7066L79.1914 26.7026C78.3419 21.7449 76.7978 17.2953 74.3589 13.6187L74.3563 13.6162C73.1349 11.7808 71.6746 10.1367 69.9435 8.78044L70.0491 8.86475L69.944 8.77883C68.2129 7.42282 66.2143 6.36964 64.0116 5.73731L46.7193 0.773154C44.518 0.141243 42.2395 -0.0336453 40.0044 0.183753ZM45.8038 93.2347C45.1487 93.5955 44.4958 93.9204 43.8543 94.1927C42.3256 94.8361 40.8479 95.2241 39.441 95.3622C38.0309 95.4994 36.6918 95.3867 35.3992 95.0156L27.5599 92.7652C29.1165 92.1543 30.6594 91.3477 32.1756 90.3697C32.5365 90.1333 32.8968 89.8883 33.2584 89.6332L45.8038 93.2347ZM54.7658 85.7977C54.2776 86.3458 53.7857 86.8824 53.2857 87.3891C52.1259 88.5705 50.953 89.628 49.783 90.564L36.7565 86.8245C38.3532 85.3851 39.915 83.7598 41.4267 81.9684L54.7658 85.7977ZM62.1152 75.5122C60.5595 78.2058 58.9012 80.6766 57.1773 82.8984L57.2432 82.6926L43.8758 78.8552C44.4081 78.135 44.9322 77.3897 45.4499 76.6252C46.5167 75.0424 47.5447 73.3647 48.5332 71.6132L62.1152 75.5122ZM68.5939 61.1636C67.2433 65.0941 65.6491 68.7875 63.8918 72.2075L50.2897 68.3027C52.0302 64.8553 53.5896 61.1519 54.9304 57.2411L68.5939 61.1636ZM72.3452 45.553C71.7997 49.4602 70.9403 53.5247 69.704 57.6659L56.0584 53.7487C57.2865 49.6332 58.1825 45.5737 58.7627 41.6538L72.3452 45.553ZM72.9702 33.3369C73.0413 34.7026 73.0626 36.1098 73.0303 37.5593C72.9998 38.9585 72.9101 40.4 72.782 41.8654L59.2165 37.9711C59.5072 35.0345 59.6081 32.1916 59.5309 29.4788L72.9702 33.3369ZM71.1601 22.806C71.8116 24.7983 72.3 27.0158 72.6183 29.4231L59.2857 25.5957C59.172 24.4478 59.0271 23.3239 58.8431 22.2377C58.6556 21.1505 58.4315 20.0981 58.1767 19.0788L71.1601 22.806ZM61.9825 12.0679C63.2751 12.439 64.455 13.0494 65.5462 13.9064C66.9586 15.009 68.2244 16.5416 69.2946 18.4574L56.9934 14.9261L56.9269 15.1336C56.2382 13.3536 55.4205 11.716 54.451 10.2578C54.3515 10.1091 54.2488 9.96461 54.1466 9.81868L61.9825 12.0679ZM48.2509 8.94145C50.1574 10.4297 51.7967 12.6954 53.0446 15.6325C54.9196 20.0309 55.8852 25.9071 55.7349 32.5941C55.5904 39.2808 54.3412 46.7782 51.8802 54.4571C48.1359 66.1576 42.2772 76.0313 35.99 82.4238C32.8525 85.6217 29.6166 87.9411 26.5574 89.2272C25.0301 89.8711 23.5524 90.259 22.1457 90.3972C20.7354 90.5344 19.398 90.4221 18.107 90.0515C16.8161 89.6809 15.6381 89.0711 14.546 88.2155C12.6389 86.7234 10.9985 84.4611 9.75453 81.5231C7.87819 77.1226 6.91077 71.2477 7.06091 64.5606C7.20736 57.8742 8.45845 50.3758 10.919 42.6983C14.6616 30.9973 20.5214 21.126 26.807 14.7328C29.9436 11.5329 33.1833 9.21297 36.238 7.92887C37.7657 7.2836 39.2434 6.89566 40.6512 6.75957C42.062 6.62077 43.3993 6.733 44.6904 7.10364C45.9815 7.47429 47.1593 8.08428 48.2509 8.94145Z" fill="#F4F1EB"/>
<path d="M48.2509 8.94145C50.1574 10.4297 51.7967 12.6954 53.0446 15.6325C54.9196 20.0309 55.8852 25.9071 55.7349 32.5941C55.5904 39.2808 54.3412 46.7782 51.8802 54.4571C48.1359 66.1576 42.2772 76.0313 35.99 82.4238C32.8525 85.6217 29.6166 87.9411 26.5574 89.2272C25.0301 89.8711 23.5524 90.259 22.1457 90.3972C20.7354 90.5344 19.398 90.4221 18.107 90.0515C16.8161 89.6809 15.6381 89.0711 14.546 88.2155C12.6389 86.7234 10.9985 84.4611 9.75453 81.5231C7.87819 77.1226 6.91077 71.2477 7.06091 64.5606C7.20736 57.8742 8.45845 50.3758 10.919 42.6983C14.6616 30.9973 20.5214 21.126 26.807 14.7328C29.9436 11.5329 33.1833 9.21297 36.238 7.92887C37.7657 7.2836 39.2434 6.89566 40.6512 6.75957C42.062 6.62077 43.3993 6.733 44.6904 7.10364C45.9815 7.47429 47.1593 8.08428 48.2509 8.94145Z" fill="#CCAF7E"/>
<path d="M35.2464 18.5797C32.7884 19.6168 30.3307 21.4015 27.9822 23.7978L27.9832 23.7945C23.2912 28.5713 19.055 35.7528 16.3265 44.2492L16.3203 44.2736L16.3188 44.2731C14.5317 49.8542 13.6169 55.311 13.5103 60.2243C13.4037 65.1376 14.099 69.4984 15.5485 72.912L15.5466 72.9064C16.5128 75.1859 17.8143 77.0321 19.4595 78.3216C20.3921 79.0566 21.4479 79.6052 22.5913 79.9317C23.5314 80.2016 24.5292 79.6898 24.8186 78.7866C25.1081 77.8832 24.5788 76.9333 23.6387 76.6634C22.9522 76.4646 22.3384 76.1523 21.7279 75.6758C20.6698 74.851 19.6481 73.4929 18.8533 71.6074L18.8514 71.6018C17.6458 68.7881 16.9681 64.8259 17.0748 60.2699C17.1714 55.711 18.0296 50.5447 19.7277 45.2517L19.7553 45.1656C22.3301 37.1375 26.3731 30.378 30.5703 26.1248L30.5736 26.1204C32.6652 23.9816 34.7994 22.4803 36.6629 21.6996C37.5978 21.3056 38.4628 21.0836 39.2483 21.0075C40.229 20.9125 40.9475 20.0768 40.8556 19.1389C40.7638 18.2011 39.8956 17.5198 38.9152 17.6146C37.7035 17.7325 36.4742 18.059 35.2464 18.5797Z" fill="#F4F1EB"/>
</svg>
