<svg width="24" height="120" viewBox="0 0 24 120" fill="none" xmlns="http://www.w3.org/2000/svg">
<path fill-rule="evenodd" clip-rule="evenodd" d="M24 108V12C24 6.34315 24 3.51472 22.2426 1.75736C20.4853 0 17.6569 0 12 0C6.34315 0 3.51472 0 1.75736 1.75736C0 3.51472 0 6.34315 0 12V108C0 113.657 0 116.485 1.75736 118.243C2.73711 119.222 4.04976 119.656 5.99984 119.848L6 114H18V119.848C18.2012 119.828 18.3957 119.806 18.5836 119.78C20.2175 119.561 21.364 119.121 22.2426 118.243C24 116.485 24 113.657 24 108ZM18 6H6V12H18V6ZM18 18H6V24H18V18ZM18 30H6V36H18V30ZM18 42H6V48H18V42ZM18 54H6V60H18V54ZM18 66H6V72H18V66ZM18 78H6V84H18V78ZM18 90H6V96H18V90ZM18 102H6V108H18V102Z" fill="#F4F1EB"/>
<path fill-rule="evenodd" clip-rule="evenodd" d="M18 120V119.848C16.4523 120 14.503 120 12 120C9.4969 120 7.5476 120 5.99984 119.848L6 120H12H18Z" fill="#F4F1EB"/>
</svg>
