<svg width="89" height="120" viewBox="0 0 89 120" fill="none" xmlns="http://www.w3.org/2000/svg">
<path d="M62.7816 2.51289C64.9206 3.44432 66.9084 4.68714 68.7438 6.16801C70.577 7.64857 72.2617 9.36504 73.8102 11.2645C78.4514 16.9698 81.9906 24.3962 84.466 32.9396C86.9271 41.4906 88.2876 51.1997 88.2593 61.4715C88.2378 69.2987 87.4116 76.741 85.9111 83.5512C84.4104 90.3616 82.2357 96.5402 79.4713 101.839C76.6987 107.132 73.3261 111.603 69.2214 114.864C67.1656 116.492 64.9116 117.82 62.4616 118.72C60.0094 119.621 57.3672 120.081 54.6485 119.988L33.289 119.276C30.568 119.187 27.927 118.551 25.4802 117.486C23.3413 116.555 21.3555 115.312 19.5202 113.831C17.6848 112.349 16.0023 110.634 14.4538 108.735C9.81669 103.03 6.26739 95.6054 3.7961 87.0619L3.78578 87.016C1.3325 78.4744 -0.0259778 68.7836 0.000182929 58.5276C0.023823 50.7024 0.85002 43.2584 2.35048 36.448C3.85121 29.6375 6.02804 23.459 8.79053 18.1599C11.5634 12.8672 14.9396 8.39908 19.0405 5.13545C21.0921 3.50771 23.3476 2.18148 25.8 1.28162C28.2525 0.382018 30.8965 -0.0795029 33.6173 0.0112486L54.9767 0.723695C57.6957 0.814385 60.3349 1.44987 62.7816 2.51289ZM22.2022 105.561C22.8106 106.209 23.4297 106.815 24.0551 107.357C25.5477 108.643 27.076 109.622 28.6156 110.292C30.1591 110.963 31.7139 111.325 33.3105 111.379L42.9936 111.702C41.4577 110.442 40.0087 108.966 38.6526 107.306C38.3313 106.907 38.0136 106.499 37.6982 106.078L22.2022 105.561ZM14.7924 93.8787C15.1437 94.6767 15.5034 95.4631 15.8833 96.2186C16.7622 97.9779 17.7012 99.602 18.6812 101.088L34.7716 101.624C33.4932 99.4137 32.3224 97.0057 31.2689 94.4282L14.7924 93.8787ZM10.2469 79.5663C11.0202 83.1796 11.991 86.5785 13.127 89.7201L13.1277 89.4633L29.6391 90.014C29.3009 89.0054 28.981 87.9714 28.6755 86.9181C28.0486 84.739 27.5001 82.467 27.0234 80.1259L10.2469 79.5663ZM8.17111 60.9801C8.26032 65.9163 8.71164 70.6736 9.44725 75.1816L26.2485 75.742C25.542 71.2092 25.1337 66.4534 25.0483 61.543L8.17111 60.9801ZM9.63945 41.9648C8.82731 46.5804 8.31233 51.4884 8.1954 56.621L25.0504 57.1832C25.1673 52.0827 25.639 47.1669 26.4165 42.5244L9.63945 41.9648ZM13.4 27.9293C12.8202 29.4469 12.2815 31.0295 11.788 32.6797C11.3109 34.2722 10.8852 35.9342 10.4941 37.6373L27.2503 38.1962C27.9955 34.7709 28.921 31.5209 30.0001 28.483L13.4 27.9293ZM19.2964 16.6888C17.8316 18.7023 16.4687 21.0301 15.2288 23.6345L31.6972 24.1838C32.2454 22.928 32.8202 21.7108 33.4253 20.5504C34.0348 19.3902 34.6729 18.2827 35.3336 17.2237L19.2964 16.6888ZM33.5958 7.90827C31.9992 7.85501 30.4424 8.11346 28.8957 8.68311C26.8962 9.41281 24.9051 10.6821 22.995 12.4561L38.1895 12.963L38.1888 13.2217C39.618 11.4618 41.141 9.90994 42.77 8.6164C42.9368 8.48472 43.1057 8.35892 43.2746 8.23136L33.5958 7.90827ZM50.2588 9.39568C47.5599 10.3806 44.8786 12.3419 42.3942 15.2053C38.6667 19.4908 35.4267 25.7792 33.1514 33.392C30.8697 41.0023 29.54 49.9329 29.5136 59.5118C29.4672 74.1052 32.4785 87.4069 37.247 96.9309C39.6238 101.692 42.433 105.497 45.4204 108.069C46.911 109.356 48.4394 110.334 49.9787 111.005C51.5225 111.676 53.0752 112.038 54.6697 112.091C56.2643 112.144 57.8187 111.886 59.3659 111.318C62.0669 110.329 64.7482 108.372 67.2285 105.506C70.9583 101.219 74.1999 94.9324 76.4754 87.3196C78.7548 79.7089 80.0826 70.7765 80.109 61.1994C80.1576 46.6061 77.1441 33.3065 72.3777 23.7824C70.0027 19.0188 67.1894 15.2122 64.2065 12.6439C62.7158 11.356 61.1875 10.3771 59.646 9.70854C58.1022 9.0358 56.5498 8.67365 54.955 8.62046C53.3602 8.56726 51.806 8.82604 50.2588 9.39568Z" fill="#F4F1EB"/>
<path fill-rule="evenodd" clip-rule="evenodd" d="M42.3942 15.2053C44.8786 12.3419 47.5599 10.3806 50.2588 9.39568C51.806 8.82604 53.3602 8.56726 54.955 8.62046C56.5498 8.67365 58.1022 9.0358 59.646 9.70854C61.1875 10.3771 62.7158 11.356 64.2065 12.6439C67.1894 15.2122 70.0027 19.0188 72.3777 23.7824C77.1441 33.3065 80.1576 46.6061 80.109 61.1994C80.0826 70.7765 78.7548 79.7089 76.4754 87.3196C74.1999 94.9324 70.9583 101.219 67.2285 105.506C64.7482 108.372 62.0669 110.329 59.3659 111.318C57.8187 111.886 56.2643 112.144 54.6697 112.091C53.0752 112.038 51.5225 111.676 49.9787 111.005C48.4394 110.334 46.911 109.356 45.4204 108.069C42.433 105.497 39.6238 101.692 37.247 96.9309C32.4785 87.4069 29.4672 74.1052 29.5136 59.5118C29.54 49.9329 30.8697 41.0023 33.1514 33.392C35.4267 25.7792 38.6667 19.4908 42.3942 15.2053ZM67.7335 33.5987C65.9553 30.0315 63.8301 27.1157 61.4313 25.0449C60.2339 24.0074 58.964 23.1888 57.6375 22.6126C56.5641 22.1468 55.3338 22.5994 54.8871 23.6258C54.4402 24.6522 54.9467 25.8595 56.0204 26.3255C56.8804 26.6987 57.7768 27.2659 58.6894 28.0531C60.5102 29.6169 62.3754 32.1001 63.9574 35.2823C67.146 41.6241 69.2439 50.7423 69.2184 60.7575L69.2181 60.8649C69.202 67.468 68.2828 73.621 66.725 78.8089C65.1797 83.9973 62.9607 88.2333 60.5692 90.9726C58.9815 92.813 57.3301 93.9743 55.8326 94.5196C54.9683 94.835 54.1605 94.9635 53.3118 94.9372C52.1506 94.8985 51.205 95.7786 51.2019 96.9055C51.1988 98.0321 52.1394 98.9754 53.3006 99.0141C54.7122 99.0632 56.1061 98.8292 57.429 98.3395C59.7599 97.4836 61.9017 95.8786 63.8274 93.6555C66.7138 90.3273 69.0942 85.6529 70.7703 80.0607C72.4464 74.4686 73.4059 67.9666 73.4269 61.0053L73.4288 60.9755C73.4518 50.3749 71.2899 40.7132 67.7335 33.5987Z" fill="#CCAF7E"/>
<path d="M61.4313 25.0449C63.8301 27.1157 65.9553 30.0315 67.7335 33.5987C71.2899 40.7132 73.4518 50.3749 73.4288 60.9755L73.4269 61.0053C73.4059 67.9666 72.4464 74.4686 70.7703 80.0607C69.0942 85.6529 66.7138 90.3273 63.8274 93.6555C61.9017 95.8786 59.7599 97.4836 57.429 98.3395C56.1061 98.8292 54.7122 99.0632 53.3006 99.0141C52.1394 98.9754 51.1988 98.0321 51.2019 96.9055C51.205 95.7786 52.1506 94.8985 53.3118 94.9372C54.1605 94.9635 54.9683 94.835 55.8326 94.5196C57.3301 93.9743 58.9815 92.813 60.5692 90.9726C62.9607 88.2333 65.1797 83.9973 66.725 78.8089C68.2828 73.621 69.202 67.468 69.2181 60.8649L69.2184 60.7575C69.2439 50.7423 67.146 41.6241 63.9574 35.2823C62.3754 32.1001 60.5102 29.6169 58.6894 28.0531C57.7768 27.2659 56.8804 26.6987 56.0204 26.3255C54.9467 25.8595 54.4402 24.6522 54.8871 23.6258C55.3338 22.5994 56.5641 22.1468 57.6375 22.6126C58.964 23.1888 60.2339 24.0074 61.4313 25.0449Z" fill="#F4F1EB"/>
</svg>
