<svg width="108" height="120" viewBox="0 0 108 120" fill="none" xmlns="http://www.w3.org/2000/svg">
<path d="M31.1765 2.51289C28.5592 3.44432 26.1267 4.68714 23.8809 6.16801C21.6376 7.64857 19.5762 9.36504 17.6814 11.2645C12.0021 16.9698 7.67136 24.3962 4.64224 32.9396C1.63071 41.4906 -0.03409 51.1997 0.000529301 61.4715C0.0269096 69.2988 1.03788 76.741 2.87393 83.5512C4.7103 90.3616 7.37144 96.5402 10.754 101.839C14.1468 107.132 18.2737 111.603 23.2965 114.864C25.812 116.492 28.5701 117.82 31.5682 118.72C34.5688 119.621 37.8019 120.081 41.1287 119.988L67.2654 119.276C70.595 119.187 73.8267 118.551 76.8207 117.486C79.4381 116.555 81.8679 115.312 84.1138 113.831C86.3596 112.349 88.4185 110.634 90.3133 108.735C95.9875 103.03 100.331 95.6054 103.355 87.0619L103.367 87.016C106.369 78.4744 108.032 68.7836 108 58.5276C107.971 50.7024 106.96 43.2584 105.124 36.448C103.287 29.6375 100.624 23.459 97.2432 18.1599C93.8501 12.8672 89.7187 8.39908 84.7007 5.13545C82.1903 3.50771 79.4303 2.18148 76.4293 1.28162C73.4284 0.382018 70.193 -0.0795029 66.8637 0.0112486L40.727 0.723695C37.4 0.814385 34.1705 1.44987 31.1765 2.51289ZM80.8319 105.561C80.0873 106.209 79.3299 106.815 78.5645 107.357C76.7382 108.643 74.868 109.622 72.9841 110.292C71.0954 110.963 69.1928 111.325 67.2391 111.379L55.3904 111.702C57.2698 110.442 59.0428 108.966 60.7022 107.306C61.0954 106.907 61.4842 106.499 61.87 106.078L80.8319 105.561ZM89.8989 93.8787C89.469 94.6767 89.0288 95.4631 88.564 96.2186C87.4886 97.9779 86.3396 99.602 85.1403 101.088L65.4512 101.624C67.0155 99.4138 68.4482 97.0057 69.7373 94.4282L89.8989 93.8787ZM95.4611 79.5663C94.5149 83.1796 93.3268 86.5785 91.9368 89.7201L91.9359 89.4633L71.7316 90.0141C72.1455 89.0054 72.5369 87.9714 72.9107 86.9181C73.6779 84.7391 74.349 82.467 74.9324 80.1259L95.4611 79.5663ZM98.0011 60.9801C97.892 65.9163 97.3397 70.6736 96.4396 75.1816L75.8805 75.742C76.7451 71.2092 77.2447 66.4534 77.3492 61.543L98.0011 60.9801ZM96.2044 41.9648C97.1982 46.5804 97.8283 51.4884 97.9714 56.621L77.3466 57.1832C77.2036 52.0827 76.6264 47.1669 75.675 42.5244L96.2044 41.9648ZM91.6028 27.9293C92.3122 29.4469 92.9714 31.0295 93.5752 32.6797C94.1591 34.2722 94.68 35.9342 95.1586 37.6373L74.6548 38.1962C73.7429 34.7709 72.6104 31.5209 71.2899 28.483L91.6028 27.9293ZM84.3875 16.6888C86.18 18.7023 87.8477 21.0301 89.365 23.6345L69.2133 24.1838C68.5424 22.928 67.8391 21.7108 67.0987 20.5504C66.3528 19.3902 65.5719 18.2827 64.7635 17.2237L84.3875 16.6888ZM66.89 7.90827C68.8437 7.85501 70.7487 8.11346 72.6413 8.68311C75.0881 9.41282 77.5245 10.6822 79.8617 12.4561L61.2689 12.963L61.2697 13.2217C59.5209 11.4618 57.6573 9.90994 55.6639 8.6164C55.4598 8.48472 55.2531 8.35892 55.0464 8.23136L66.89 7.90827ZM46.5001 9.39568C49.8027 10.3806 53.0837 12.3419 56.1238 15.2053C60.6849 19.4908 64.6496 25.7792 67.4337 33.392C70.2258 41.0023 71.8529 49.9329 71.8852 59.5118C71.942 74.1052 68.2572 87.4069 62.4222 96.9309C59.5138 101.692 56.0763 105.497 52.4208 108.069C50.5967 109.356 48.7265 110.334 46.8429 111.005C44.9539 111.676 43.0539 112.038 41.1027 112.091C39.1515 112.144 37.2494 111.886 35.3562 111.318C32.0511 110.329 28.7701 108.372 25.7351 105.506C21.1711 101.219 17.2045 94.9324 14.42 87.3196C11.6308 79.7089 10.006 70.7765 9.97374 61.1994C9.91434 46.6061 13.6017 33.3065 19.4342 23.7824C22.3403 19.0188 25.7829 15.2122 29.433 12.6439C31.2571 11.356 33.1272 10.3772 35.0134 9.70854C36.9025 9.0358 38.8022 8.67365 40.7536 8.62046C42.7051 8.56726 44.6069 8.82604 46.5001 9.39568Z" fill="#F4F1EB"/>
<path fill-rule="evenodd" clip-rule="evenodd" d="M56.1238 15.2053C53.0837 12.3419 49.8027 10.3806 46.5001 9.39568C44.6069 8.82604 42.7051 8.56726 40.7536 8.62046C38.8022 8.67365 36.9025 9.0358 35.0134 9.70854C33.1272 10.3772 31.2571 11.356 29.433 12.6439C25.7829 15.2122 22.3403 19.0188 19.4342 23.7824C13.6017 33.3065 9.91434 46.6061 9.97374 61.1994C10.006 70.7765 11.6308 79.7089 14.42 87.3196C17.2045 94.9324 21.1711 101.219 25.7351 105.506C28.7701 108.372 32.0511 110.329 35.3562 111.318C37.2494 111.886 39.1515 112.144 41.1027 112.091C43.0539 112.038 44.9539 111.676 46.8429 111.005C48.7265 110.334 50.5967 109.356 52.4208 108.069C56.0763 105.497 59.5138 101.692 62.4222 96.9309C68.2572 87.4069 71.942 74.1052 71.8852 59.5118C71.8529 49.9329 70.2258 41.0023 67.4337 33.392C64.6496 25.7792 60.6849 19.4908 56.1238 15.2053ZM25.1172 33.5987C27.2931 30.0315 29.8936 27.1157 32.8289 25.0449C34.294 24.0074 35.848 23.1888 37.4711 22.6126C38.7846 22.1468 40.2902 22.5994 40.8367 23.6258C41.3835 24.6522 40.7638 25.8595 39.45 26.3255C38.3977 26.6987 37.3007 27.2659 36.184 28.0531C33.956 29.6169 31.6737 32.1001 29.7378 35.2823C25.8361 41.6241 23.269 50.7423 23.3002 60.7575L23.3005 60.8649C23.3202 67.468 24.445 73.621 26.3512 78.8089C28.2422 83.9973 30.9574 88.2333 33.8838 90.9726C35.8266 92.813 37.8473 93.9743 39.6798 94.5196C40.7373 94.835 41.7259 94.9635 42.7644 94.9372C44.1853 94.8985 45.3424 95.7786 45.3462 96.9055C45.35 98.0321 44.199 98.9754 42.7781 99.0141C41.0507 99.0632 39.3451 98.8292 37.7263 98.3395C34.874 97.4836 32.2532 95.8786 29.8969 93.6555C26.3648 90.3274 23.4521 85.6529 21.4011 80.0607C19.3501 74.4686 18.176 67.9667 18.1503 61.0053L18.148 60.9755C18.1199 50.3749 20.7653 40.7132 25.1172 33.5987Z" fill="#CCAF7E"/>
<path d="M32.8289 25.0449C29.8936 27.1157 27.2931 30.0315 25.1172 33.5987C20.7653 40.7132 18.1199 50.3749 18.148 60.9755L18.1503 61.0053C18.176 67.9667 19.3501 74.4686 21.4011 80.0607C23.4521 85.6529 26.3648 90.3274 29.8969 93.6555C32.2532 95.8786 34.874 97.4836 37.7263 98.3395C39.3451 98.8292 41.0507 99.0632 42.7781 99.0141C44.199 98.9754 45.35 98.0321 45.3462 96.9055C45.3424 95.7786 44.1853 94.8985 42.7644 94.9372C41.7259 94.9635 40.7373 94.835 39.6798 94.5196C37.8473 93.9743 35.8266 92.813 33.8838 90.9726C30.9574 88.2333 28.2422 83.9973 26.3512 78.8089C24.445 73.621 23.3202 67.468 23.3005 60.8649L23.3002 60.7575C23.269 50.7423 25.8361 41.6241 29.7378 35.2823C31.6737 32.1001 33.956 29.6169 36.184 28.0531C37.3007 27.2659 38.3977 26.6987 39.45 26.3255C40.7638 25.8595 41.3835 24.6522 40.8367 23.6258C40.2902 22.5994 38.7846 22.1468 37.4711 22.6126C35.848 23.1888 34.294 24.0074 32.8289 25.0449Z" fill="#F4F1EB"/>
</svg>
