<svg width="108" height="120" viewBox="0 0 108 120" fill="none" xmlns="http://www.w3.org/2000/svg">
<path d="M76.8235 2.51289C79.4408 3.44432 81.8733 4.68714 84.1191 6.16801C86.3624 7.64857 88.4238 9.36504 90.3186 11.2645C95.9979 16.9698 100.329 24.3962 103.358 32.9396C106.369 41.4906 108.034 51.1997 107.999 61.4715C107.973 69.2988 106.962 76.741 105.126 83.5512C103.29 90.3616 100.629 96.5402 97.246 101.839C93.8532 107.132 89.7263 111.603 84.7035 114.864C82.188 116.492 79.4299 117.82 76.4318 118.72C73.4312 119.621 70.1981 120.081 66.8713 119.988L40.7346 119.276C37.405 119.187 34.1733 118.551 31.1793 117.486C28.5619 116.555 26.1321 115.312 23.8862 113.831C21.6404 112.349 19.5815 110.634 17.6867 108.735C12.0125 103.03 7.66938 95.6054 4.64537 87.0619L4.63274 87.016C1.63075 78.4744 -0.0315532 68.7836 0.000458621 58.5276C0.029386 50.7024 1.04037 43.2584 2.87642 36.448C4.7128 29.6375 7.37648 23.459 10.7568 18.1599C14.1499 12.8672 18.2813 8.39908 23.2993 5.13545C25.8097 3.50771 28.5697 2.18148 31.5707 1.28162C34.5716 0.382018 37.807 -0.0795029 41.1363 0.0112486L67.273 0.723695C70.6 0.814385 73.8295 1.44987 76.8235 2.51289ZM27.1681 105.561C27.9127 106.209 28.6701 106.815 29.4355 107.357C31.2618 108.643 33.132 109.622 35.0159 110.292C36.9046 110.963 38.8072 111.325 40.7609 111.379L52.6096 111.702C50.7302 110.442 48.9572 108.966 47.2978 107.306C46.9046 106.907 46.5158 106.499 46.13 106.078L27.1681 105.561ZM18.1011 93.8787C18.531 94.6767 18.9712 95.4631 19.436 96.2186C20.5114 97.9779 21.6604 99.602 22.8597 101.088L42.5488 101.624C40.9845 99.4138 39.5518 97.0057 38.2627 94.4282L18.1011 93.8787ZM12.5389 79.5663C13.4851 83.1796 14.6732 86.5785 16.0632 89.7201L16.0641 89.4633L36.2684 90.0141C35.8545 89.0054 35.4631 87.9714 35.0893 86.9181C34.3221 84.7391 33.651 82.467 33.0676 80.1259L12.5389 79.5663ZM9.99889 60.9801C10.108 65.9163 10.6603 70.6736 11.5604 75.1816L32.1195 75.742C31.2549 71.2092 30.7553 66.4534 30.6508 61.543L9.99889 60.9801ZM11.7956 41.9648C10.8018 46.5804 10.1717 51.4884 10.0286 56.621L30.6534 57.1832C30.7964 52.0827 31.3736 47.1669 32.325 42.5244L11.7956 41.9648ZM16.3972 27.9293C15.6878 29.4469 15.0286 31.0295 14.4248 32.6797C13.8409 34.2722 13.32 35.9342 12.8414 37.6373L33.3452 38.1962C34.2571 34.7709 35.3896 31.5209 36.7101 28.483L16.3972 27.9293ZM23.6125 16.6888C21.82 18.7023 20.1523 21.0301 18.635 23.6345L38.7867 24.1838C39.4576 22.928 40.1609 21.7108 40.9013 20.5504C41.6472 19.3902 42.4281 18.2827 43.2365 17.2237L23.6125 16.6888ZM41.11 7.90827C39.1563 7.85501 37.2513 8.11346 35.3587 8.68311C32.9119 9.41282 30.4755 10.6822 28.1383 12.4561L46.7311 12.963L46.7303 13.2217C48.4791 11.4618 50.3427 9.90994 52.3361 8.6164C52.5402 8.48472 52.7469 8.35892 52.9536 8.23136L41.11 7.90827ZM61.4999 9.39568C58.1973 10.3806 54.9163 12.3419 51.8762 15.2053C47.3151 19.4908 43.3504 25.7792 40.5663 33.392C37.7742 41.0023 36.1471 49.9329 36.1148 59.5118C36.058 74.1052 39.7428 87.4069 45.5778 96.9309C48.4862 101.692 51.9237 105.497 55.5792 108.069C57.4033 109.356 59.2735 110.334 61.1571 111.005C63.0461 111.676 64.9461 112.038 66.8973 112.091C68.8485 112.144 70.7506 111.886 72.6438 111.318C75.9489 110.329 79.2299 108.372 82.2649 105.506C86.8289 101.219 90.7955 94.9324 93.58 87.3196C96.3692 79.7089 97.994 70.7765 98.0263 61.1994C98.0857 46.6061 94.3983 33.3065 88.5658 23.7824C85.6597 19.0188 82.2171 15.2122 78.567 12.6439C76.7429 11.356 74.8728 10.3772 72.9866 9.70854C71.0975 9.0358 69.1978 8.67365 67.2464 8.62046C65.2949 8.56726 63.3931 8.82604 61.4999 9.39568Z" fill="#F4F1EB"/>
<path fill-rule="evenodd" clip-rule="evenodd" d="M51.8762 15.2053C54.9163 12.3419 58.1973 10.3806 61.4999 9.39568C63.3931 8.82604 65.2949 8.56726 67.2464 8.62046C69.1978 8.67365 71.0975 9.0358 72.9866 9.70854C74.8728 10.3772 76.7429 11.356 78.567 12.6439C82.2171 15.2122 85.6597 19.0188 88.5658 23.7824C94.3983 33.3065 98.0857 46.6061 98.0263 61.1994C97.994 70.7765 96.3692 79.7089 93.58 87.3196C90.7955 94.9324 86.8289 101.219 82.2649 105.506C79.2299 108.372 75.9489 110.329 72.6438 111.318C70.7506 111.886 68.8485 112.144 66.8973 112.091C64.9461 112.038 63.0461 111.676 61.1571 111.005C59.2735 110.334 57.4033 109.356 55.5792 108.069C51.9237 105.497 48.4862 101.692 45.5778 96.9309C39.7428 87.4069 36.058 74.1052 36.1148 59.5118C36.1471 49.9329 37.7742 41.0023 40.5663 33.392C43.3504 25.7792 47.3151 19.4908 51.8762 15.2053ZM82.8828 33.5987C80.7069 30.0315 78.1064 27.1157 75.1711 25.0449C73.706 24.0074 72.152 23.1888 70.5289 22.6126C69.2154 22.1468 67.7098 22.5994 67.1633 23.6258C66.6165 24.6522 67.2362 25.8595 68.55 26.3255C69.6023 26.6987 70.6993 27.2659 71.816 28.0531C74.044 29.6169 76.3263 32.1001 78.2622 35.2823C82.1639 41.6241 84.731 50.7423 84.6998 60.7575L84.6995 60.8649C84.6798 67.468 83.555 73.621 81.6488 78.8089C79.7578 83.9973 77.0426 88.2333 74.1162 90.9726C72.1734 92.813 70.1527 93.9743 68.3202 94.5196C67.2627 94.835 66.2741 94.9635 65.2356 94.9372C63.8147 94.8985 62.6576 95.7786 62.6538 96.9055C62.65 98.0321 63.801 98.9754 65.2219 99.0141C66.9493 99.0632 68.6549 98.8292 70.2737 98.3395C73.126 97.4836 75.7468 95.8786 78.1031 93.6555C81.6352 90.3274 84.5479 85.6529 86.5989 80.0607C88.6499 74.4686 89.824 67.9667 89.8497 61.0053L89.852 60.9755C89.8801 50.3749 87.2347 40.7132 82.8828 33.5987Z" fill="#CCAF7E"/>
<path d="M75.1711 25.0449C78.1064 27.1157 80.7069 30.0315 82.8828 33.5987C87.2347 40.7132 89.8801 50.3749 89.852 60.9755L89.8497 61.0053C89.824 67.9667 88.6499 74.4686 86.5989 80.0607C84.5479 85.6529 81.6352 90.3274 78.1031 93.6555C75.7468 95.8786 73.126 97.4836 70.2737 98.3395C68.6549 98.8292 66.9493 99.0632 65.2219 99.0141C63.801 98.9754 62.65 98.0321 62.6538 96.9055C62.6576 95.7786 63.8147 94.8985 65.2356 94.9372C66.2741 94.9635 67.2627 94.835 68.3202 94.5196C70.1527 93.9743 72.1734 92.813 74.1162 90.9726C77.0426 88.2333 79.7578 83.9973 81.6488 78.8089C83.555 73.621 84.6798 67.468 84.6995 60.8649L84.6998 60.7575C84.731 50.7423 82.1639 41.6241 78.2622 35.2823C76.3263 32.1001 74.044 29.6169 71.816 28.0531C70.6993 27.2659 69.6023 26.6987 68.55 26.3255C67.2362 25.8595 66.6165 24.6522 67.1633 23.6258C67.7098 22.5994 69.2154 22.1468 70.5289 22.6126C72.152 23.1888 73.706 24.0074 75.1711 25.0449Z" fill="#F4F1EB"/>
</svg>
