<svg width="89" height="120" viewBox="0 0 89 120" fill="none" xmlns="http://www.w3.org/2000/svg">
<path d="M25.4781 2.51289C23.3392 3.44432 21.3513 4.68714 19.516 6.16801C17.6827 7.64857 15.9981 9.36504 14.4496 11.2645C9.80834 16.9698 6.2692 24.3962 3.79374 32.9396C1.33265 41.4906 -0.0278591 51.1997 0.000432557 61.4715C0.0219911 69.2987 0.848178 76.741 2.34864 83.5512C3.84936 90.3616 6.0241 96.5402 8.78842 101.839C11.5611 107.132 14.9336 111.603 19.0384 114.864C21.0941 116.492 23.3481 117.82 25.7982 118.72C28.2504 119.621 30.8926 120.081 33.6113 119.988L54.9707 119.276C57.6918 119.187 60.3328 118.551 62.7795 117.486C64.9185 116.555 66.9043 115.312 68.7396 113.831C70.5749 112.349 72.2575 110.634 73.806 108.735C78.4431 103.03 81.9924 95.6054 84.4637 87.0619L84.474 87.016C86.9273 78.4744 88.2857 68.7836 88.2596 58.5276C88.2359 50.7024 87.4097 43.2584 85.9093 36.448C84.4086 29.6375 82.2317 23.459 79.4692 18.1599C76.6963 12.8672 73.3201 8.39908 69.2193 5.13545C67.1677 3.50771 64.9121 2.18148 62.4597 1.28162C60.0073 0.382018 57.3633 -0.0795029 54.6425 0.0112486L33.283 0.723695C30.5641 0.814385 27.9249 1.44987 25.4781 2.51289ZM66.0576 105.561C65.4491 106.209 64.8301 106.815 64.2046 107.357C62.7121 108.643 61.1838 109.622 59.6442 110.292C58.1007 110.963 56.5459 111.325 54.9492 111.379L45.2662 111.702C46.8021 110.442 48.2511 108.966 49.6071 107.306C49.9285 106.907 50.2462 106.499 50.5615 106.078L66.0576 105.561ZM73.4674 93.8787C73.116 94.6767 72.7563 95.4631 72.3764 96.2186C71.4976 97.9779 70.5586 99.602 69.5785 101.088L53.4882 101.624C54.7665 99.4137 55.9374 97.0057 56.9909 94.4282L73.4674 93.8787ZM78.0129 79.5663C77.2396 83.1796 76.2687 86.5785 75.1328 89.7201L75.1321 89.4633L58.6206 90.014C58.9589 89.0054 59.2788 87.9714 59.5842 86.9181C60.2112 84.739 60.7596 82.467 61.2364 80.1259L78.0129 79.5663ZM80.0887 60.9801C79.9994 65.9163 79.5481 70.6736 78.8125 75.1816L62.0112 75.742C62.7178 71.2092 63.1261 66.4534 63.2114 61.543L80.0887 60.9801ZM78.6203 41.9648C79.4325 46.5804 79.9474 51.4884 80.0644 56.621L63.2093 57.1832C63.0925 52.0827 62.6208 47.1669 61.8433 42.5244L78.6203 41.9648ZM74.8598 27.9293C75.4395 29.4469 75.9782 31.0295 76.4717 32.6797C76.9489 34.2722 77.3746 35.9342 77.7657 37.6373L61.0095 38.1962C60.2643 34.7709 59.3388 31.5209 58.2596 28.483L74.8598 27.9293ZM68.9633 16.6888C70.4281 18.7023 71.791 21.0301 73.031 23.6345L56.5626 24.1838C56.0143 22.928 55.4396 21.7108 54.8345 20.5504C54.2249 19.3902 53.5868 18.2827 52.9262 17.2237L68.9633 16.6888ZM54.664 7.90827C56.2606 7.85501 57.8174 8.11346 59.3641 8.68311C61.3636 9.41281 63.3547 10.6821 65.2647 12.4561L50.0702 12.963L50.071 13.2217C48.6418 11.4618 47.1188 9.90994 45.4898 8.6164C45.3229 8.48472 45.154 8.35892 44.9851 8.23136L54.664 7.90827ZM38.0009 9.39568C40.6999 10.3806 43.3812 12.3419 45.8656 15.2053C49.593 19.4908 52.8331 25.7792 55.1083 33.392C57.3901 41.0023 58.7197 49.9329 58.7461 59.5118C58.7926 74.1052 55.7813 87.4069 51.0128 96.9309C48.6359 101.692 45.8268 105.497 42.8394 108.069C41.3487 109.356 39.8204 110.334 38.2811 111.005C36.7373 111.676 35.1846 112.038 33.59 112.091C31.9955 112.144 30.4411 111.886 28.8939 111.318C26.1928 110.329 23.5115 108.372 21.0313 105.506C17.3015 101.219 14.0599 94.9324 11.7844 87.3196C9.50498 79.7089 8.17714 70.7765 8.15076 61.1994C8.10221 46.6061 11.1156 33.3065 15.882 23.7824C18.257 19.0188 21.0704 15.2122 24.0533 12.6439C25.544 11.356 27.0723 10.3771 28.6137 9.70854C30.1575 9.0358 31.71 8.67365 33.3048 8.62046C34.8996 8.56726 36.4537 8.82604 38.0009 9.39568Z" fill="#F4F1EB"/>
<path fill-rule="evenodd" clip-rule="evenodd" d="M45.8656 15.2053C43.3812 12.3419 40.6999 10.3806 38.0009 9.39568C36.4537 8.82604 34.8996 8.56726 33.3048 8.62046C31.71 8.67365 30.1575 9.0358 28.6137 9.70854C27.0723 10.3771 25.544 11.356 24.0533 12.6439C21.0704 15.2122 18.257 19.0188 15.882 23.7824C11.1156 33.3065 8.10221 46.6061 8.15076 61.1994C8.17714 70.7765 9.50498 79.7089 11.7844 87.3196C14.0599 94.9324 17.3015 101.219 21.0313 105.506C23.5115 108.372 26.1928 110.329 28.8939 111.318C30.4411 111.886 31.9955 112.144 33.59 112.091C35.1846 112.038 36.7373 111.676 38.2811 111.005C39.8204 110.334 41.3487 109.356 42.8394 108.069C45.8268 105.497 48.6359 101.692 51.0128 96.9309C55.7813 87.4069 58.7926 74.1052 58.7461 59.5118C58.7197 49.9329 57.3901 41.0023 55.1083 33.392C52.8331 25.7792 49.593 19.4908 45.8656 15.2053ZM20.5263 33.5987C22.3045 30.0315 24.4297 27.1157 26.8285 25.0449C28.0258 24.0074 29.2958 23.1888 30.6222 22.6126C31.6956 22.1468 32.926 22.5994 33.3726 23.6258C33.8195 24.6522 33.3131 25.8595 32.2394 26.3255C31.3794 26.6987 30.4829 27.2659 29.5703 28.0531C27.7496 29.6169 25.8844 32.1001 24.3024 35.2823C21.1138 41.6241 19.0159 50.7423 19.0414 60.7575L19.0417 60.8649C19.0578 67.468 19.977 73.621 21.5348 78.8089C23.0801 83.9973 25.2991 88.2333 27.6905 90.9726C29.2783 92.813 30.9297 93.9743 32.4272 94.5196C33.2914 94.835 34.0993 94.9635 34.948 94.9372C36.1092 94.8985 37.0548 95.7786 37.0579 96.9055C37.061 98.0321 36.1204 98.9754 34.9592 99.0141C33.5475 99.0632 32.1536 98.8292 30.8308 98.3395C28.4998 97.4836 26.358 95.8786 24.4324 93.6555C21.5459 90.3273 19.1655 85.6529 17.4895 80.0607C15.8134 74.4686 14.8538 67.9666 14.8328 61.0053L14.8309 60.9755C14.808 50.3749 16.9699 40.7132 20.5263 33.5987Z" fill="#CCAF7E"/>
<path d="M26.8285 25.0449C24.4297 27.1157 22.3045 30.0315 20.5263 33.5987C16.9699 40.7132 14.808 50.3749 14.8309 60.9755L14.8328 61.0053C14.8538 67.9666 15.8134 74.4686 17.4895 80.0607C19.1655 85.6529 21.5459 90.3273 24.4324 93.6555C26.358 95.8786 28.4998 97.4836 30.8308 98.3395C32.1536 98.8292 33.5475 99.0632 34.9592 99.0141C36.1204 98.9754 37.061 98.0321 37.0579 96.9055C37.0548 95.7786 36.1092 94.8985 34.948 94.9372C34.0993 94.9635 33.2914 94.835 32.4272 94.5196C30.9297 93.9743 29.2783 92.813 27.6905 90.9726C25.2991 88.2333 23.0801 83.9973 21.5348 78.8089C19.977 73.621 19.0578 67.468 19.0417 60.8649L19.0414 60.7575C19.0159 50.7423 21.1138 41.6241 24.3024 35.2823C25.8844 32.1001 27.7496 29.6169 29.5703 28.0531C30.4829 27.2659 31.3794 26.6987 32.2394 26.3255C33.3131 25.8595 33.8195 24.6522 33.3726 23.6258C32.926 22.5994 31.6956 22.1468 30.6222 22.6126C29.2958 23.1888 28.0258 24.0074 26.8285 25.0449Z" fill="#F4F1EB"/>
</svg>
