<svg width="120" height="120" viewBox="0 0 120 120" fill="none" xmlns="http://www.w3.org/2000/svg">
<path d="M0 60C0 26.8629 26.8629 0 60 0C93.1371 0 120 26.8629 120 60C120 93.1371 93.1371 120 60 120C26.8629 120 0 93.1371 0 60Z" fill="#CCAF7E"/>
<path d="M51.1859 22.0206C50.8099 20.4006 49.1876 19.3815 47.5987 19.8726C41.2237 21.8427 35.395 25.3085 30.608 29.9981C25.1024 35.3918 21.1871 42.1965 19.2909 49.667C17.3947 57.1375 17.5907 64.9858 19.8575 72.3523C21.8284 78.7573 25.2986 84.5834 29.9623 89.3554C31.1247 90.5448 33.0366 90.4228 34.1396 89.1782C35.2427 87.9336 35.1175 86.0387 33.9695 84.8355C30.1255 80.8066 27.2593 75.9295 25.6136 70.5811C23.6718 64.2709 23.5039 57.548 25.1282 51.1487C26.7525 44.7494 30.1064 38.9204 34.8225 34.3001C38.8198 30.3841 43.6651 27.4643 48.9652 25.7564C50.5481 25.2464 51.5619 23.6405 51.1859 22.0206Z" fill="#F4F1EB"/>
<path d="M120 60C120 93.1371 93.1371 120 60 120C26.8629 120 0 93.1371 0 60C0 26.8629 26.8629 0 60 0C93.1371 0 120 26.8629 120 60ZM5.84734 60C5.84734 89.9077 30.0923 114.153 60 114.153C89.9077 114.153 114.153 89.9077 114.153 60C114.153 30.0923 89.9077 5.84734 60 5.84734C30.0923 5.84734 5.84734 30.0923 5.84734 60Z" fill="#F4F1EB"/>
</svg>
