<svg width="23" height="29" viewBox="0 0 23 29" fill="none" xmlns="http://www.w3.org/2000/svg">
<path d="M11.4192 0.0310278C10.8667 0.0852396 10.3255 0.221031 9.80145 0.421899C9.27788 0.622846 8.77068 0.888096 8.28091 1.20476C6.81203 2.15662 5.46663 3.57892 4.28025 5.33208C3.09656 7.08801 2.07725 9.18677 1.33118 11.5147C0.762663 13.2886 0.404542 15.0343 0.245405 16.6863C0.0863096 18.3383 0.126119 19.8966 0.363857 21.299L0.364041 21.3001C0.60413 22.7016 1.04011 23.9599 1.73063 24.9991C2.07688 25.5182 2.48995 25.9841 2.9788 26.3674C3.468 26.7512 4.03262 27.0487 4.65499 27.227L9.54364 28.6304C10.1663 28.8096 10.8109 28.8591 11.4429 28.7972C11.9955 28.743 12.5362 28.607 13.0602 28.4062C13.5844 28.2049 14.091 27.94 14.5807 27.6234L14.5815 27.6227C16.0494 26.6705 17.3962 25.2501 18.5817 23.4966L18.5873 23.487C19.7686 21.7326 20.7861 19.6379 21.5315 17.3137C22.0994 15.5401 22.4576 13.794 22.6168 12.142C22.7759 10.4899 22.7356 8.93146 22.4983 7.5292L22.4976 7.52808C22.2575 6.12651 21.821 4.86858 21.1315 3.82918L21.1307 3.82846C20.7854 3.3096 20.3726 2.84478 19.8832 2.46137C19.3938 2.07801 18.8289 1.77982 18.2062 1.60105L13.3176 0.197655C12.6953 0.01901 12.0511 -0.0304322 11.4192 0.0310278ZM13.0588 26.3371C12.8735 26.4391 12.689 26.531 12.5076 26.608C12.0755 26.7899 11.6577 26.8995 11.26 26.9386C10.8613 26.9774 10.4827 26.9455 10.1173 26.8406L7.9011 26.2044C8.34115 26.0317 8.77735 25.8037 9.20599 25.5272C9.30801 25.4603 9.40988 25.3911 9.51208 25.319L13.0588 26.3371ZM15.5924 24.2346C15.4544 24.3896 15.3153 24.5413 15.1739 24.6845C14.8461 25.0185 14.5145 25.3175 14.1837 25.5821L10.501 24.5249C10.9524 24.118 11.394 23.6585 11.8213 23.1521L15.5924 24.2346ZM17.6701 21.3269C17.2303 22.0884 16.7615 22.7869 16.2741 23.415L16.2928 23.3568L12.5137 22.2719C12.6642 22.0683 12.8124 21.8576 12.9587 21.6415C13.2603 21.194 13.5509 20.7198 13.8304 20.2246L17.6701 21.3269ZM19.5017 17.2704C19.1199 18.3816 18.6692 19.4257 18.1724 20.3926L14.327 19.2887C14.819 18.3141 15.2599 17.2671 15.6389 16.1615L19.5017 17.2704ZM20.5622 12.8572C20.408 13.9618 20.165 15.1109 19.8155 16.2816L15.9578 15.1742C16.305 14.0107 16.5583 12.863 16.7223 11.7549L20.5622 12.8572ZM20.7389 9.40362C20.759 9.78973 20.765 10.1876 20.7559 10.5973C20.7472 10.9929 20.7219 11.4004 20.6857 11.8147L16.8506 10.7138C16.9328 9.88356 16.9613 9.07986 16.9395 8.31293L20.7389 9.40362ZM20.2272 6.42647C20.4113 6.98971 20.5494 7.61663 20.6394 8.29718L16.8702 7.21514C16.838 6.89063 16.7971 6.5729 16.7451 6.26583C16.692 5.95846 16.6287 5.66095 16.5567 5.37277L20.2272 6.42647ZM17.6326 3.39076C17.998 3.49567 18.3316 3.66823 18.6401 3.91052C19.0394 4.22223 19.3972 4.65551 19.6998 5.19712L16.2221 4.19878L16.2033 4.25743C16.0086 3.75423 15.7775 3.29127 15.5034 2.87903C15.4752 2.837 15.4462 2.79614 15.4173 2.75488L17.6326 3.39076ZM13.7506 2.50688C14.2896 2.92761 14.753 3.56814 15.1058 4.3985C15.6359 5.64194 15.9088 7.30318 15.8663 9.19363C15.8255 11.084 15.4724 13.2036 14.7766 15.3745C13.7181 18.6823 12.0618 21.4736 10.2843 23.2808C9.39734 24.1849 8.48254 24.8406 7.61767 25.2042C7.18591 25.3862 6.76815 25.4959 6.37047 25.535C5.97178 25.5737 5.59366 25.542 5.22871 25.4372C4.86376 25.3325 4.53073 25.16 4.22198 24.9182C3.68283 24.4963 3.21908 23.8568 2.8674 23.0262C2.33695 21.7821 2.06345 20.1213 2.1059 18.2308C2.1473 16.3405 2.50099 14.2206 3.1966 12.0502C4.25466 8.74222 5.91127 5.95153 7.68824 4.14414C8.57497 3.2395 9.49086 2.58365 10.3544 2.22062C10.7863 2.0382 11.2041 1.92853 11.6021 1.89005C12.0009 1.85082 12.379 1.88254 12.744 1.98733C13.109 2.09211 13.442 2.26456 13.7506 2.50688Z" fill="#141414"/>
<path d="M13.7506 2.50688C14.2896 2.92761 14.753 3.56814 15.1058 4.3985C15.6359 5.64194 15.9088 7.30318 15.8663 9.19363C15.8255 11.084 15.4724 13.2036 14.7766 15.3745C13.7181 18.6823 12.0618 21.4736 10.2843 23.2808C9.39734 24.1849 8.48254 24.8406 7.61767 25.2042C7.18591 25.3862 6.76815 25.4959 6.37047 25.535C5.97178 25.5737 5.59366 25.542 5.22871 25.4372C4.86376 25.3325 4.53073 25.16 4.22198 24.9182C3.68283 24.4963 3.21908 23.8568 2.8674 23.0262C2.33695 21.7821 2.06345 20.1213 2.1059 18.2308C2.1473 16.3405 2.50099 14.2206 3.1966 12.0502C4.25466 8.74222 5.91127 5.95153 7.68824 4.14414C8.57497 3.2395 9.49086 2.58365 10.3544 2.22062C10.7863 2.0382 11.2041 1.92853 11.6021 1.89005C12.0009 1.85082 12.379 1.88254 12.744 1.98733C13.109 2.09211 13.442 2.26456 13.7506 2.50688Z" fill="#CCAF7E"/>
<path d="M10.0744 5.2319C9.37951 5.52508 8.6847 6.02962 8.02075 6.70707C6.69427 8.0575 5.49697 10.0868 4.7256 12.4888L4.72385 12.4957C4.21864 14.0735 3.9596 15.6161 3.92946 17.0051C3.89932 18.3941 4.09588 19.6269 4.50566 20.592L4.50512 20.5904C4.77829 21.2348 5.14622 21.7568 5.61133 22.1213C5.87499 22.3291 6.17347 22.4842 6.4967 22.5765C6.76247 22.6528 7.04456 22.5081 7.12639 22.2528C7.20823 21.9974 7.05859 21.7288 6.79282 21.6525C6.59873 21.5963 6.42522 21.508 6.25264 21.3733C5.95349 21.1401 5.66464 20.7562 5.43994 20.2232L5.43941 20.2216C5.09858 19.4261 4.90699 18.306 4.93716 17.018C4.96447 15.7292 5.20708 14.2686 5.68716 12.7723L5.69496 12.7479C6.42286 10.4783 7.56586 8.56734 8.75243 7.36494L8.75335 7.3637C9.34468 6.75903 9.94802 6.33462 10.4748 6.11391C10.7392 6.00253 10.9837 5.93976 11.2058 5.91826C11.483 5.8914 11.6861 5.65513 11.6601 5.38998C11.6342 5.12485 11.3888 4.93224 11.1116 4.95906C10.769 4.99238 10.4215 5.08469 10.0744 5.2319Z" fill="#141414"/>
</svg>
