<svg width="32" height="32" viewBox="0 0 32 32" fill="none" xmlns="http://www.w3.org/2000/svg">
<path d="M2.6665 11.1747C2.6665 9.5803 2.6665 8.7823 2.98228 8.17564C3.24784 7.66471 3.66447 7.24809 4.17539 6.98253C4.78206 6.66675 5.58006 6.66675 7.1745 6.66675H24.6029C26.1974 6.66675 26.9954 6.66675 27.6021 6.98253C28.113 7.24809 28.5296 7.66471 28.7952 8.17564C29.1109 8.7823 29.1109 9.5803 29.1109 11.1747V20.8254C29.1109 22.4199 29.1109 23.2179 28.7952 23.8245C28.5296 24.3354 28.113 24.7521 27.6021 25.0176C26.9954 25.3334 26.1974 25.3334 24.6029 25.3334H7.1745C5.58006 25.3334 4.78206 25.3334 4.17539 25.0176C3.66447 24.7521 3.24784 24.3354 2.98228 23.8245C2.6665 23.2179 2.6665 22.4199 2.6665 20.8254V11.1747Z" stroke="#F4F1EB" stroke-width="1.5"/>
<path d="M2.6665 12.8892H29.1109" stroke="#F4F1EB" stroke-width="1.5" stroke-linecap="round"/>
<path d="M7.33344 21.4447C7.763 21.4447 8.11122 21.0965 8.11122 20.6669C8.11122 20.2374 7.763 19.8892 7.33344 19.8892C6.90389 19.8892 6.55566 20.2374 6.55566 20.6669C6.55566 21.0965 6.90389 21.4447 7.33344 21.4447Z" fill="#F4F1EB"/>
</svg>
