<svg width="26" height="26" viewBox="0 0 26 26" fill="none" xmlns="http://www.w3.org/2000/svg">
<path d="M20.0001 25.5417H6.00006C4.53088 25.5398 3.12241 24.9554 2.08355 23.9165C1.04469 22.8777 0.460241 21.4692 0.458389 20V11.7424C0.456453 10.911 0.642442 10.09 1.00245 9.34074C1.36246 8.59142 1.88718 7.93317 2.53739 7.41519L10.2666 1.23185C11.0403 0.606887 12.0049 0.265991 12.9995 0.265991C13.9941 0.265991 14.9587 0.606887 15.7324 1.23185L23.4604 7.41519C24.1109 7.93294 24.636 8.59112 24.9962 9.34046C25.3564 10.0898 25.5425 10.9109 25.5406 11.7424V20C25.5387 21.469 24.9544 22.8773 23.9158 23.9161C22.8772 24.9549 21.469 25.5395 20.0001 25.5417ZM3.63172 8.78135C3.18658 9.13566 2.82733 9.58604 2.58085 10.0988C2.33437 10.6116 2.20704 11.1734 2.20839 11.7424V20C2.20962 21.0053 2.6095 21.969 3.32031 22.6798C4.03112 23.3906 4.99482 23.7904 6.00006 23.7917H20.0001C21.0053 23.7904 21.969 23.3906 22.6798 22.6798C23.3906 21.969 23.7905 21.0053 23.7917 20V11.7424C23.7931 11.1734 23.6657 10.6116 23.4193 10.0988C23.1728 9.58604 22.8135 9.13566 22.3684 8.78135L14.6404 2.59802C14.176 2.22328 13.5973 2.0189 13.0006 2.0189C12.4039 2.0189 11.8252 2.22328 11.3609 2.59802L3.63172 8.78135Z" fill="#F4F1EB"/>
<path d="M3.63172 8.78135C3.18658 9.13566 2.82733 9.58604 2.58085 10.0988C2.33437 10.6116 2.20704 11.1734 2.20839 11.7424V20C2.20962 21.0053 2.6095 21.969 3.32031 22.6798C4.03112 23.3906 4.99482 23.7904 6.00006 23.7917H20.0001C21.0053 23.7904 21.969 23.3906 22.6798 22.6798C23.3906 21.969 23.7905 21.0053 23.7917 20V11.7424C23.7931 11.1734 23.6657 10.6116 23.4193 10.0988C23.1728 9.58604 22.8135 9.13566 22.3684 8.78135L14.6404 2.59802C14.176 2.22328 13.5973 2.0189 13.0006 2.0189C12.4039 2.0189 11.8252 2.22328 11.3609 2.59802L3.63172 8.78135Z" fill="#F4F1EB"/>
<path d="M14 25.5419V18.3752C14 17.8229 13.5523 17.3752 13 17.3752C12.4477 17.3752 12 17.8229 12 18.3752V25.5419H14Z" fill="#CCAF7E"/>
</svg>
