<svg width="32" height="32" viewBox="0 0 32 32" fill="none" xmlns="http://www.w3.org/2000/svg">
<path d="M24.0003 30.3333H8.00034C6.32129 30.3312 4.71161 29.6632 3.52434 28.476C2.33707 27.2887 1.66913 25.679 1.66701 24V14.5626C1.6648 13.6126 1.87736 12.6743 2.2888 11.8179C2.70024 10.9616 3.29992 10.2093 4.04301 9.61729L12.8763 2.55062C13.7606 1.83637 14.863 1.44678 15.9997 1.44678C17.1364 1.44678 18.2387 1.83637 19.123 2.55062L27.955 9.61729C28.6985 10.209 29.2985 10.9612 29.7102 11.8176C30.1219 12.674 30.3346 13.6124 30.3323 14.5626V24C30.3302 25.6788 29.6625 27.2883 28.4755 28.4755C27.2885 29.6627 25.6792 30.3308 24.0003 30.3333ZM5.29368 11.1786C4.78495 11.5835 4.37438 12.0983 4.09268 12.6843C3.81099 13.2703 3.66547 13.9124 3.66701 14.5626V24C3.66842 25.1488 4.12542 26.2502 4.93777 27.0625C5.75012 27.8749 6.85151 28.3319 8.00034 28.3333H24.0003C25.1492 28.3319 26.2506 27.8749 27.0629 27.0625C27.8753 26.2502 28.3323 25.1488 28.3337 24V14.5626C28.3352 13.9124 28.1897 13.2703 27.908 12.6843C27.6263 12.0983 27.2157 11.5835 26.707 11.1786L17.875 4.11195C17.3443 3.68368 16.683 3.4501 16.001 3.4501C15.3191 3.4501 14.6577 3.68368 14.127 4.11195L5.29368 11.1786Z" fill="#F4F1EB"/>
<path d="M17 30.3335V22.0002C17 21.4479 16.5523 21.0002 16 21.0002C15.4477 21.0002 15 21.4479 15 22.0002V30.3335H17Z" fill="#F4F1EB"/>
</svg>
