<svg width="32" height="32" viewBox="0 0 32 32" fill="none" xmlns="http://www.w3.org/2000/svg">
<path fill-rule="evenodd" clip-rule="evenodd" d="M16.7933 6.00963C17.1562 5.59333 17.788 5.55006 18.2042 5.91298L25.9904 12.7009C26.3046 12.9749 26.4158 13.4151 26.2696 13.8055C26.1233 14.1959 25.7501 14.4546 25.3332 14.4546H6.6665C6.11422 14.4546 5.6665 14.0069 5.6665 13.4546C5.6665 12.9024 6.11422 12.4546 6.6665 12.4546H22.6644L16.89 7.42053C16.4737 7.05761 16.4304 6.42592 16.7933 6.00963Z" fill="#F4F1EB"/>
<path fill-rule="evenodd" clip-rule="evenodd" d="M15.2064 25.9906C14.8435 26.407 14.2118 26.4502 13.7955 26.0873L6.00942 19.2994C5.69514 19.0254 5.58383 18.5851 5.73013 18.1947C5.87643 17.8043 6.24961 17.5457 6.66655 17.5457H25.3332C25.8855 17.5457 26.3332 17.9934 26.3332 18.5457C26.3332 19.0979 25.8855 19.5457 25.3332 19.5457H9.33537L15.1098 24.5798C15.526 24.9427 15.5694 25.5743 15.2064 25.9906Z" fill="#F4F1EB"/>
</svg>
