<svg width="32" height="32" viewBox="0 0 32 32" fill="none" xmlns="http://www.w3.org/2000/svg">
<path d="M16.4999 11.1911C15.5487 11.1911 14.619 11.4731 13.8281 12.0016C13.0373 12.53 12.4209 13.281 12.0569 14.1598C11.6929 15.0385 11.5977 16.0054 11.7833 16.9383C11.9688 17.8712 12.4268 18.728 13.0994 19.4006C13.7719 20.0732 14.6288 20.5312 15.5617 20.7167C16.4945 20.9023 17.4615 20.807 18.3402 20.4431C19.2189 20.0791 19.97 19.4627 20.4984 18.6719C21.0268 17.881 21.3089 16.9512 21.3089 16.0001C21.3074 14.7251 20.8003 13.5028 19.8988 12.6012C18.9972 11.6997 17.7749 11.1925 16.4999 11.1911ZM16.4999 19.9348C15.7217 19.9348 14.9609 19.704 14.3139 19.2717C13.6668 18.8393 13.1625 18.2248 12.8647 17.5058C12.5669 16.7869 12.489 15.9957 12.6408 15.2325C12.7926 14.4693 13.1674 13.7682 13.7176 13.2179C14.2679 12.6676 14.969 12.2929 15.7323 12.1411C16.4955 11.9892 17.2866 12.0672 18.0056 12.365C18.7246 12.6628 19.3391 13.1671 19.7714 13.8141C20.2038 14.4612 20.4345 15.2219 20.4345 16.0001C20.4345 17.0436 20.02 18.0444 19.2821 18.7823C18.5442 19.5202 17.5434 19.9348 16.4999 19.9348ZM25.6731 16.3837C25.6825 16.128 25.6825 15.873 25.6731 15.6187L27.4032 13.4557C27.4462 13.4023 27.4759 13.3396 27.4902 13.2726C27.5044 13.2055 27.5027 13.1361 27.4852 13.0699C27.2262 12.1018 26.84 11.1723 26.3365 10.3058C26.3028 10.2462 26.2555 10.1954 26.1986 10.1575C26.1416 10.1195 26.0765 10.0954 26.0086 10.0872L23.2554 9.78118C23.0823 9.5938 22.9018 9.41333 22.7144 9.24016L22.4095 6.49137C22.4013 6.42342 22.3772 6.35835 22.3392 6.3014C22.3013 6.24445 22.2505 6.19721 22.1909 6.16349C21.3255 5.66115 20.3976 5.27528 19.4312 5.01588C19.365 4.99821 19.2957 4.99632 19.2286 5.01037C19.1616 5.02441 19.0988 5.05401 19.0454 5.09676L16.8835 6.82691C16.6277 6.81671 16.3727 6.81671 16.1184 6.82691L13.9533 5.09676C13.8999 5.05382 13.8372 5.02403 13.7701 5.00979C13.7031 4.99555 13.6337 4.99726 13.5675 5.01479C12.6001 5.27391 11.6714 5.66018 10.8056 6.16349C10.746 6.19721 10.6952 6.24445 10.6572 6.3014C10.6193 6.35835 10.5952 6.42342 10.587 6.49137L10.2809 9.24453C10.0936 9.4177 9.91308 9.59818 9.73992 9.78555L6.99113 10.0905C6.92318 10.0987 6.85811 10.1228 6.80116 10.1607C6.74421 10.1987 6.69697 10.2495 6.66324 10.3091C6.1609 11.1745 5.77503 12.1024 5.51563 13.0688C5.49796 13.1349 5.49607 13.2043 5.51012 13.2713C5.52417 13.3384 5.55376 13.4011 5.59651 13.4546L7.32667 15.6165C7.31647 15.8722 7.31647 16.1273 7.32667 16.3816L5.59651 18.5467C5.55357 18.6001 5.52378 18.6628 5.50955 18.7298C5.49531 18.7969 5.49702 18.8663 5.51454 18.9325C5.77367 19.8999 6.15993 20.8286 6.66324 21.6944C6.69697 21.754 6.74421 21.8048 6.80116 21.8428C6.85811 21.8807 6.92318 21.9048 6.99113 21.913L9.74429 22.219C9.91698 22.4059 10.0984 22.5874 10.2853 22.7601L10.5913 25.5143C10.5996 25.5823 10.6236 25.6473 10.6616 25.7043C10.6996 25.7612 10.7504 25.8085 10.8099 25.8422C11.6766 26.3433 12.6056 26.7277 13.5729 26.9854C13.6391 27.0031 13.7084 27.005 13.7755 26.9909C13.8425 26.9769 13.9053 26.9473 13.9587 26.9046L16.1206 25.1744C16.3764 25.1839 16.6314 25.1839 16.8857 25.1744L19.0486 26.9046C19.1261 26.9667 19.2225 27.0007 19.3219 27.0007C19.3588 27.0006 19.3955 26.9959 19.4312 26.9865C20.399 26.7271 21.3281 26.3405 22.1942 25.8367C22.2537 25.803 22.3045 25.7558 22.3425 25.6988C22.3805 25.6419 22.4045 25.5768 22.4128 25.5088L22.7188 22.7557C22.9057 22.583 23.0871 22.4016 23.2598 22.2147L26.0141 21.9086C26.082 21.9004 26.1471 21.8764 26.204 21.8384C26.261 21.8004 26.3082 21.7496 26.342 21.6901C26.843 20.8234 27.2274 19.8944 27.4852 18.9271C27.5029 18.8609 27.5047 18.7915 27.4907 18.7245C27.4767 18.6575 27.4471 18.5947 27.4043 18.5412L25.6731 16.3837ZM25.6916 21.0649L22.9953 21.3643C22.8878 21.3763 22.7885 21.4277 22.7166 21.5086C22.495 21.7587 22.2584 21.9952 22.0084 22.2169C21.9274 22.2887 21.876 22.388 21.8641 22.4956L21.5646 25.1908C20.8845 25.5667 20.1645 25.8655 19.4181 26.0816L17.2999 24.3864C17.2223 24.3246 17.1259 24.2911 17.0267 24.2913H17.0004C16.667 24.3121 16.3327 24.3121 15.9993 24.2913C15.8911 24.2848 15.7844 24.3187 15.6998 24.3864L13.5828 26.0805C12.836 25.8653 12.1156 25.5673 11.4351 25.1919L11.1356 22.4956C11.1237 22.388 11.0723 22.2887 10.9914 22.2169C10.7413 21.9952 10.5048 21.7587 10.2831 21.5086C10.2113 21.4277 10.112 21.3763 10.0044 21.3643L7.30918 21.0649C6.93324 20.3848 6.63446 19.6648 6.41842 18.9183L8.1136 16.8002C8.18131 16.7156 8.21519 16.6088 8.20868 16.5007C8.18901 16.1673 8.18901 15.833 8.20868 15.4995C8.21519 15.3914 8.18131 15.2847 8.1136 15.2001L6.41951 13.083C6.63468 12.3362 6.93272 11.6158 7.30809 10.9353L10.0044 10.6359C10.112 10.6239 10.2113 10.5725 10.2831 10.4916C10.5048 10.2415 10.7413 10.005 10.9914 9.78336C11.0723 9.71152 11.1237 9.61221 11.1356 9.50466L11.4351 6.80942C12.1152 6.43348 12.8352 6.13471 13.5817 5.91866L15.6998 7.61384C15.7844 7.68155 15.8911 7.71544 15.9993 7.70893C16.3327 7.68816 16.667 7.68816 17.0004 7.70893C17.1086 7.71544 17.2153 7.68155 17.2999 7.61384L19.417 5.91976C20.1638 6.13492 20.8841 6.43297 21.5646 6.80833L21.8641 9.50466C21.876 9.61221 21.9274 9.71152 22.0084 9.78336C22.2584 10.005 22.495 10.2415 22.7166 10.4916C22.7885 10.5725 22.8878 10.6239 22.9953 10.6359L25.6905 10.9353C26.0665 11.6155 26.3653 12.3354 26.5813 13.0819L24.8861 15.2001C24.8184 15.2847 24.7845 15.3914 24.791 15.4995C24.8107 15.833 24.8107 16.1673 24.791 16.5007C24.7845 16.6088 24.8184 16.7156 24.8861 16.8002L26.5802 18.9172C26.365 19.664 26.067 20.3844 25.6916 21.0649Z" fill="#F4F1EB" stroke="#F4F1EB" stroke-width="0.75"/>
</svg>
